<svg version="1.1" id="logo" xmlns="http://www.w3.org/2000/svg" xmlns:xlink="http://www.w3.org/1999/xlink" x="0px" y="0px" width="189px" height="273px" viewBox="0 0 189 273" enable-background="new 0 0 189 273" xml:space="preserve" class=" drawsvg-initialized ">
<path fill="#FFFFFF" d="M161.74,129.473l-0.217-0.04l0.002-0.04l-0.082,0.025l-8.332-1.537l-0.016-0.003l-0.018,0.005
	c-1.354,0.421-6.73,1.132-14.037,1.858l-0.49,0.05h0.002l-21.316,2.12l-0.008,0.001c-3.967,0.395-7.576,0.652-10.779,0.774
	c-1.551-1.531-1.607-5.119-1.012-14.907l3.523-57.719c0.863-14.175,1.461-15.798,6.381-17.388l2.107-0.667l0.018-0.007l0.012-0.013
	c0.883-1.009,1.109-4.421,0.402-5.427l0.285-0.046l-0.373-0.068l-0.008-0.012l-0.025,0.005l-8.338-1.539l-0.014-0.001l-0.012,0.001
	c-4.838,0.789-9.637,1.417-14.668,1.918c-4.924,0.489-9.928,0.841-15.748,1.107l-0.031-0.005l-0.006,0.007l-0.58,0.026l0.492,0.09
	c-0.85,1.139-1.037,4.578-0.264,5.43l0.016,0.017l5.352,0.987c2.203,1.134,2.344,4.269,1.658,15.514l-0.006,0.062l0,0l-1.094,17.938
	c-0.273,4.51-0.279,4.597-4.584,5.024l-0.49,0.048l0,0L62.59,84.739c-0.004-0.579,0.033-1.293,0.088-2.184l1.098-18
	c0.865-14.176,1.488-15.961,6.072-17.358l2.211-0.677l0.018-0.007l0.014-0.015c0.881-1.007,1.107-4.422,0.398-5.425l0.285-0.047
	l-0.369-0.068l-0.01-0.01l-0.025,0.003l-8.338-1.539l-0.012-0.001l-0.012,0.001c-4.439,0.738-9.574,1.41-14.461,1.896
	c-5.125,0.509-10.463,0.882-15.438,1.077l-0.029-0.007l-0.007,0.008l-0.598,0.023l0.509,0.093c-0.847,1.139-1.035,4.578-0.263,5.428
	l0.015,0.019l5.326,0.982c1.899,1.273,2.032,4.738,1.375,15.548l-0.006,0.062l0,0L36.915,122.2
	c-0.876,14.353-1.464,15.978-6.281,17.376l0,0l-2.507,0.713l-0.023-0.007l-0.012,0.017l-0.269,0.073l0.186,0.037
	c-0.846,1.135-1.032,4.575-0.26,5.427l0.015,0.017l8.351,1.542l0.01,0.01l0.023-0.003l0.192,0.037l-0.051-0.057
	c5.219-0.822,10.391-1.491,15.372-1.991c4.678-0.463,9.834-0.822,15.756-1.099l0.031-0.003l0.02-0.023
	c0.908-1.039,1.127-4.654,0.33-5.523l-0.018-0.02h-0.023l-6.236-1.152c-1.748-1.349-1.898-4.906-1.264-15.299l1.361-22.344
	c0.262-4.312,0.393-4.448,4.574-4.864l17.361-1.726c-0.006,0.54-0.043,1.202-0.096,2.026l-0.002,0.062l0,0l-1.359,22.28
	c-0.877,14.355-1.463,15.978-6.281,17.378l-0.285,0.083h0.006l-2.02,0.606l-0.021-0.003l-0.014,0.015l-0.258,0.076l0.178,0.032
	c-0.852,1.139-1.037,4.578-0.264,5.43l0.016,0.017l8.352,1.542l0.008,0.01l0.027-0.003l0.191,0.033l-0.053-0.057
	c4.918-0.792,10.02-1.455,15.166-1.964c3.646-0.363,7.219-0.619,10.656-0.766c1.369,1.671,1.398,5.47,0.822,14.929l-0.004,0.06l0,0
	l-3.518,57.659l-0.006,0.06l0,0c-0.826,13.537-1.234,15.365-6.256,17.004l-0.021,0.006l-3.438,1.105l-0.021-0.003l-0.014,0.013
	l-0.244,0.08l0.164,0.03c-0.854,1.142-1.039,4.581-0.262,5.431l0.016,0.016l8.35,1.542l0.01,0.011l0.025-0.004l0.191,0.033
	l-0.049-0.053c6.336-0.943,11.457-1.596,16.098-2.059c4.807-0.476,9.74-0.828,16.482-1.178h0.031l0.02-0.027
	c0.807-1.028,1.021-4.638,0.332-5.517l-0.02-0.026h-0.027l-6.801-1.256c-1.73-1.331-1.848-4.84-1.219-15.139l1.279-20.945
	c0.252-4.142,0.373-4.604,3.127-4.878l5.562-0.556c0.654,1.262,0.941,3.219,1.168,6.08l0.004,0.053l0.281,3.526l-0.047-0.01
	l0.055,0.113l0.002,0.04l0.025,0.006c0.209,0.396,0.604,0.669,1.131,0.766l8.348,1.542l0,0l0.004-0.01
	c0.143,0.027,0.289,0.05,0.449,0.05c0.094,0,0.188-0.007,0.285-0.017c0.975-0.096,1.836-0.632,2.193-1.372l0.008-0.03
	c0.07-4.458,0.311-10.175,0.674-16.101c0.365-6.016,0.824-11.763,1.322-16.63l0.004-0.017l-0.006-0.013
	c-0.197-0.486-0.676-0.819-1.299-0.936l0.002-0.003l-8.352-1.542c-0.246-0.047-0.512-0.057-0.777-0.03
	c-0.861,0.087-1.59,0.52-1.963,1.155l-0.021-0.003l-0.012,0.056l-0.041,0.073l0.027,0.007l-0.742,3.746
	c-1.463,7.488-2.611,8.806-8.135,9.355l0,0l-0.318,0.03l-0.182,0.02l0,0l-1.803,0.176c0.002-0.583,0.043-1.302,0.096-2.181
	l1.715-28.083c0.369-6.066,0.385-6.306,3.75-6.639l7.547-0.749c0.818,0.636,1.488,1.455,2.006,2.474v0.003
	c0.941,1.971,1.541,5.78,2.254,11.683l-0.139-0.027l0.152,0.146l0.002,0.027l0.035,0.007c0.32,0.296,0.732,0.502,1.193,0.589
	l8.352,1.539c0.158,0.03,0.324,0.046,0.49,0.046c0.092,0,0.184-0.007,0.271-0.013c1.031-0.104,1.846-0.746,2.127-1.698
	c0.195-4.718,0.574-12.731,1.27-24.133L161.74,129.473z" style="stroke-dasharray: 1069.97, 1069.97; stroke-dashoffset: 0;"></path>
</svg>